<svg width="38" height="33" viewBox="0 0 38 33" fill="none" xmlns="http://www.w3.org/2000/svg">
<path fill-rule="evenodd" clip-rule="evenodd" d="M36.7333 30.4017H34.2V12.6683C34.2 11.2692 33.0658 10.135 31.6667 10.135H21.5333V2.535C21.5339 1.60026 21.0198 0.741138 20.1957 0.299954C19.3716 -0.14123 18.3716 -0.092778 17.594 0.426003L4.92733 8.86834C4.22158 9.3392 3.79839 10.1321 3.8 10.9805V30.4017H1.26667C0.567106 30.4017 0 30.9688 0 31.6683C0 32.3679 0.567106 32.935 1.26667 32.935H36.7333C37.4329 32.935 38 32.3679 38 31.6683C38 30.9688 37.4329 30.4017 36.7333 30.4017ZM31.6667 12.6683V30.4017H21.5333V12.6683H31.6667ZM6.33333 10.9805L19 2.535V30.4017H6.33333V10.9805ZM16.4667 15.2017V17.735C16.4667 18.4346 15.8996 19.0017 15.2 19.0017C14.5004 19.0017 13.9333 18.4346 13.9333 17.735V15.2017C13.9333 14.5021 14.5004 13.935 15.2 13.935C15.8996 13.935 16.4667 14.5021 16.4667 15.2017ZM11.4 15.2017V17.735C11.4 18.4346 10.8329 19.0017 10.1333 19.0017C9.43377 19.0017 8.86667 18.4346 8.86667 17.735V15.2017C8.86667 14.5021 9.43377 13.935 10.1333 13.935C10.8329 13.935 11.4 14.5021 11.4 15.2017ZM11.4 24.0683V26.6017C11.4 27.3012 10.8329 27.8683 10.1333 27.8683C9.43377 27.8683 8.86667 27.3012 8.86667 26.6017V24.0683C8.86667 23.3688 9.43377 22.8017 10.1333 22.8017C10.8329 22.8017 11.4 23.3688 11.4 24.0683ZM16.4667 24.0683V26.6017C16.4667 27.3012 15.8996 27.8683 15.2 27.8683C14.5004 27.8683 13.9333 27.3012 13.9333 26.6017V24.0683C13.9333 23.3688 14.5004 22.8017 15.2 22.8017C15.8996 22.8017 16.4667 23.3688 16.4667 24.0683Z" fill="#FFF8E1"/>
</svg>
