<svg width="40" height="26" viewBox="0 0 40 26" fill="none" xmlns="http://www.w3.org/2000/svg">
<path fill-rule="evenodd" clip-rule="evenodd" d="M18.296 17.479C21.7959 15.149 23.3574 10.8021 22.1403 6.77756C20.9232 2.75298 17.2144 -1.9892e-05 13.0098 -1.9892e-05C8.80524 -1.9892e-05 5.09651 2.75298 3.87938 6.77756C2.66225 10.8021 4.22379 15.149 7.72371 17.479C4.64026 18.6155 2.00692 20.7185 0.21663 23.4742C-0.039445 23.8548 -0.0707284 24.3438 0.134761 24.7539C0.340251 25.1641 0.75067 25.4318 1.20883 25.4545C1.66699 25.4772 2.10189 25.2515 2.34698 24.8637C4.69324 21.2551 8.7055 19.078 13.0098 19.078C17.3142 19.078 21.3264 21.2551 23.6727 24.8637C24.0608 25.4406 24.8403 25.5989 25.4227 25.219C26.0051 24.8391 26.1745 24.062 25.803 23.4742C24.0127 20.7185 21.3794 18.6155 18.296 17.479ZM6.01467 9.54271C6.01467 5.67939 9.14651 2.54755 13.0098 2.54755C16.8732 2.54755 20.005 5.67939 20.005 9.54271C20.005 13.406 16.8732 16.5379 13.0098 16.5379C9.14833 16.5335 6.01905 13.4042 6.01467 9.54271ZM39.4229 25.2341C38.8346 25.6178 38.0468 25.4519 37.663 24.8637C35.3194 21.2527 31.3051 19.0758 27.0002 19.0816C26.2977 19.0816 25.7283 18.5121 25.7283 17.8097C25.7283 17.1073 26.2977 16.5379 27.0002 16.5379C29.8174 16.5352 32.3581 14.8428 33.4461 12.2441C34.534 9.64538 33.9569 6.64764 31.9818 4.63866C30.0067 2.62968 27.0193 2.00159 24.4024 3.04516C23.9777 3.22877 23.4867 3.16721 23.1204 2.88441C22.7542 2.6016 22.5704 2.14219 22.6406 1.68481C22.7108 1.22743 23.0239 0.844255 23.4581 0.684289C27.9937 -1.12459 33.163 0.783928 35.4351 5.10621C37.7071 9.4285 36.3481 14.7687 32.2863 17.479C35.3697 18.6155 38.0031 20.7185 39.7934 23.4742C40.177 24.0625 40.0112 24.8504 39.4229 25.2341Z" fill="currentColor"/>
</svg>
