<svg width="30" height="25" viewBox="0 0 30 25" fill="none" xmlns="http://www.w3.org/2000/svg">
<path fill-rule="evenodd" clip-rule="evenodd" d="M30 11.25V13.75C30 14.4404 29.4404 15 28.75 15H1.25C0.559644 15 0 14.4404 0 13.75V11.25C0 10.5596 0.559644 10 1.25 10H28.75C29.4404 10 30 10.5596 30 11.25ZM28.75 20H1.25C0.559644 20 0 20.5596 0 21.25V23.75C0 24.4404 0.559644 25 1.25 25H28.75C29.4404 25 30 24.4404 30 23.75V21.25C30 20.5596 29.4404 20 28.75 20ZM28.75 0H1.25C0.559644 0 0 0.559644 0 1.25V3.75C0 4.44036 0.559644 5 1.25 5H28.75C29.4404 5 30 4.44036 30 3.75V1.25C30 0.559644 29.4404 0 28.75 0Z" fill="#FFF8E1"/>
</svg>
